:SAMPLES-PER-SECOND 30
:FULLY-SPECIFIED
:DEGREES
782
root  5.2832 39.3987 23.8377 179.2 63.8801 -175.798
RightUpLeg  2.79467 -11.4761 -4.11049
RightLeg  14.7911 -1.65598 1.89702
RightFoot  -9.20523 -0.105921 2.31707
RightToes  5.47152e-009 0 -3.6325e-017
Spine  6.34169 -0.90547 13.3691
Spine1  9.76898 1.35739 -4.76944
HEad  -20.6419 44.0749 -27.0456
LeftShoulder1  -0.194291 3.99871 -33.1281
LeftArm  1.07025 13.2359 -39.298
LeftForeArm  29.4047 -10.0561 -9.17618
LeftHand  -0.0166011 3.80001 -0.415157
RightShoulder  -0.697741 -5.58652 26.8319
RightArm  24.8508 -0.140091 42.6908
RightForeArm  0.367983 18.5314 5.6924
RightHand  -0.224549 0.856422 -4.23843
LeftUpLeg  -16.8388 8.43895 1.02931
LeftLeg  41.6616 -2.23303 -1.74266
LeftFoot  -4.10215 0.12085 -1.47275
LeftToes  -4.29285e-010 1.49941e-010 2.15559e-012
783
root  6.28083 39.4768 23.6868 178.753 61.8138 -176.492
RightUpLeg  5.72396 -10.7757 -3.86469
RightLeg  12.21 -4.34808 1.53837
RightFoot  -9.59767 -0.10203 2.41876
RightToes  5.47152e-009 0 -3.6325e-017
Spine  6.13103 -0.604906 12.417
Spine1  9.84471 1.3349 -4.47105
HEad  -18.8215 43.2226 -26.8971
LeftShoulder1  -0.269018 4.18455 -33.3819
LeftArm  0.916606 14.2984 -38.9416
LeftForeArm  28.256 -10.6544 -8.83989
LeftHand  -0.0201526 3.60923 -0.0785709
RightShoulder  -0.617899 -5.35797 26.6062
RightArm  25.8379 0.00321719 41.533
RightForeArm  -2.27256 20.1257 5.36786
RightHand  -0.361496 2.77065 -5.37004
LeftUpLeg  -17.0229 12.3092 -0.976921
LeftLeg  30.9192 -2.59548 -1.18573
LeftFoot  -3.49739 0.00375967 0.265724
LeftToes  -4.29285e-010 1.49941e-010 2.15559e-012
784
root  7.23462 39.4926 23.4622 179.036 59.8398 -176.752
RightUpLeg  8.12892 -10.3118 -3.37875
RightLeg  9.84941 -6.75479 1.45436
RightFoot  -10.0839 -0.096786 2.60076
RightToes  5.47152e-009 0 -3.6325e-017
Spine  5.46126 -0.220525 12.1943
Spine1  10.1121 1.59679 -4.81787
HEad  -16.4142 43.9282 -24.2241
LeftShoulder1  -0.273258 4.19269 -33.5045
LeftArm  0.947789 14.6015 -38.7663
LeftForeArm  28.1512 -10.6217 -8.84223
LeftHand  -0.0146356 4.45396 -1.23188
RightShoulder  -0.611447 -5.35223 26.358
RightArm  25.2492 0.0339897 40.6471
RightForeArm  -3.0569 20.9206 5.20716
RightHand  -0.41508 3.37792 -5.74839
LeftUpLeg  -16.4884 15.5056 -2.88317
LeftLeg  18.5315 -0.708769 -0.775827
LeftFoot  -2.55861 0.121234 -1.35639
LeftToes  -4.29285e-010 1.49941e-010 2.15559e-012
785
root  8.30382 39.421 23.2031 179.088 57.1756 -176.71
RightUpLeg  11.4807 -9.90294 -2.62825
RightLeg  7.15355 -9.73278 1.63587
RightFoot  -10.8434 -0.0871057 3.11273
RightToes  5.47152e-009 0 -3.6325e-017
Spine  4.29874 -0.198571 11.1716
Spine1  11.1863 1.37776 -4.58188
HEad  -15.3951 43.3966 -22.4416
LeftShoulder1  -0.236217 4.10562 -33.0858
LeftArm  0.0906583 15.2585 -38.9201
LeftForeArm  27.853 -10.3903 -8.72015
LeftHand  -0.00831799 4.04904 -1.29936
RightShoulder  -0.57871 -5.24343 26.4956
RightArm  25.6303 0.0268068 40.0372
RightForeArm  -3.69475 21.0491 5.22654
RightHand  -0.368048 2.23393 -5.7856
LeftUpLeg  -13.9558 11.5546 -2.25328
LeftLeg  5.75061 9.74943 -2.97673
LeftFoot  -1.7753 0.305588 -3.54094
LeftToes  -4.29285e-010 1.49941e-010 2.15559e-012
786
root  9.36261 39.2497 22.8472 179.521 54.5388 -176.043
RightUpLeg  14.5664 -9.53999 -1.53122
RightLeg  5.34637 -12.5775 2.01202
RightFoot  -11.8422 -0.0641209 3.70565
RightToes  5.47152e-009 0 -3.6325e-017
Spine  3.32956 -0.281374 9.51531
Spine1  12.0042 0.677372 -2.80826
HEad  -14.3327 43.2373 -22.0249
LeftShoulder1  -0.366895 4.42275 -33.7903
LeftArm  0.179765 15.5414 -38.4523
LeftForeArm  27.6514 -10.6337 -8.61729
LeftHand  0.00144639 3.58637 -1.25639
RightShoulder  -0.453143 -4.888 25.8773
RightArm  24.5647 -0.09906 40.0278
RightForeArm  -2.4349 20.2678 5.32285
RightHand  -0.335817 1.98327 -5.45928
LeftUpLeg  -11.8051 4.1674 -1.41385
LeftLeg  -4.59057 24.4287 -5.65143
LeftFoot  -1.54244 0.322825 -3.66229
LeftToes  -4.29285e-010 1.49941e-010 2.15559e-012
787
root  10.3963 38.9443 22.4075 -179.665 52.3106 -174.851
RightUpLeg  16.6133 -9.37786 -0.199658
RightLeg  5.63236 -14.8353 2.18744
RightFoot  -13.5625 -0.00840954 4.29693
RightToes  5.47152e-009 0 -3.6325e-017
Spine  2.82394 -0.176873 9.70393
Spine1  12.2653 0.720723 -2.75943
HEad  -14.1837 42.075 -21.5018
LeftShoulder1  -0.405536 4.51847 -33.7462
LeftArm  0.476672 15.4365 -38.3917
LeftForeArm  27.316 -10.9693 -8.53889
LeftHand  0.000559442 3.93089 -1.24426
RightShoulder  -0.481526 -4.96816 25.9713
RightArm  22.8908 0.0221299 40.402
RightForeArm  -1.44132 17.6792 5.91698
RightHand  -0.415556 3.06154 -5.94138
LeftUpLeg  -11.6626 2.59448 -2.25856
LeftLeg  -8.16768 31.4384 -5.40902
LeftFoot  -2.31649 0.306672 -3.64936
LeftToes  -4.29285e-010 1.49941e-010 2.15559e-012
